<svg width="18" height="18" viewBox="0 0 18 18" fill="none" xmlns="http://www.w3.org/2000/svg">
<path d="M5.25 5.8125C5.25 5.66332 5.30926 5.52024 5.41475 5.41475C5.52024 5.30926 5.66332 5.25 5.8125 5.25H11.8125C11.9617 5.25 12.1048 5.30926 12.2102 5.41475C12.3157 5.52024 12.375 5.66332 12.375 5.8125C12.375 5.96168 12.3157 6.10476 12.2102 6.21025C12.1048 6.31574 11.9617 6.375 11.8125 6.375H5.8125C5.66332 6.375 5.52024 6.31574 5.41475 6.21025C5.30926 6.10476 5.25 5.96168 5.25 5.8125ZM5.8125 9.375H11.8125C11.9617 9.375 12.1048 9.31574 12.2102 9.21025C12.3157 9.10476 12.375 8.96168 12.375 8.8125C12.375 8.66332 12.3157 8.52024 12.2102 8.41475C12.1048 8.30926 11.9617 8.25 11.8125 8.25H5.8125C5.66332 8.25 5.52024 8.30926 5.41475 8.41475C5.30926 8.52024 5.25 8.66332 5.25 8.8125C5.25 8.96168 5.30926 9.10476 5.41475 9.21025C5.52024 9.31574 5.66332 9.375 5.8125 9.375ZM8.8125 11.25H5.8125C5.66332 11.25 5.52024 11.3093 5.41475 11.4148C5.30926 11.5202 5.25 11.6633 5.25 11.8125C5.25 11.9617 5.30926 12.1048 5.41475 12.2102C5.52024 12.3157 5.66332 12.375 5.8125 12.375H8.8125C8.96168 12.375 9.10476 12.3157 9.21025 12.2102C9.31574 12.1048 9.375 11.9617 9.375 11.8125C9.375 11.6633 9.31574 11.5202 9.21025 11.4148C9.10476 11.3093 8.96168 11.25 8.8125 11.25ZM17.625 1.3125V11.5022C17.6253 11.6746 17.5915 11.8454 17.5256 12.0047C17.4596 12.1639 17.3627 12.3086 17.2406 12.4303L12.4303 17.2406C12.3086 17.3627 12.1639 17.4596 12.0047 17.5256C11.8454 17.5915 11.6746 17.6253 11.5022 17.625H1.3125C0.964403 17.625 0.630564 17.4867 0.384422 17.2406C0.138281 16.9944 0 16.6606 0 16.3125V1.3125C0 0.964403 0.138281 0.630564 0.384422 0.384422C0.630564 0.138281 0.964403 0 1.3125 0H16.3125C16.6606 0 16.9944 0.138281 17.2406 0.384422C17.4867 0.630564 17.625 0.964403 17.625 1.3125ZM1.3125 16.5H11.25V11.8125C11.25 11.6633 11.3093 11.5202 11.4148 11.4148C11.5202 11.3093 11.6633 11.25 11.8125 11.25H16.5V1.3125C16.5 1.26277 16.4802 1.21508 16.4451 1.17992C16.4099 1.14475 16.3622 1.125 16.3125 1.125H1.3125C1.26277 1.125 1.21508 1.14475 1.17992 1.17992C1.14475 1.21508 1.125 1.26277 1.125 1.3125V16.3125C1.125 16.3622 1.14475 16.4099 1.17992 16.4451C1.21508 16.4802 1.26277 16.5 1.3125 16.5ZM15.705 12.375H12.375V15.705L15.705 12.375Z" fill="black"/>
</svg>
